
        <svg xmlns="http://www.w3.org/2000/svg" xmlns:xlink="http://www.w3.org/1999/xlink" version="1.1" width="3192.9260450160773" height="1003.2154340836013" viewBox="0 0 3192.9260450160773 1003.2154340836013">
			
			<g transform="scale(9.646302250803858) translate(10, 10)">
				<defs id="SvgjsDefs11869"><linearGradient id="SvgjsLinearGradient11878"><stop id="SvgjsStop11879" stop-color="#8f5e25" offset="0"/><stop id="SvgjsStop11880" stop-color="#fbf4a1" offset="0.5"/><stop id="SvgjsStop11881" stop-color="#8f5e25" offset="1"/></linearGradient></defs><g id="SvgjsG11870" featureKey="rootContainer" transform="matrix(1,0,0,1,0,0)" fill="#000"><rect width="311" height="84" rx="8"/></g><g id="SvgjsG11871" featureKey="symbolFeature-0" transform="matrix(1.6875,0,0,1.6875,18.3125,15)" fill="#ffffff"><g xmlns="http://www.w3.org/2000/svg" class="st0" style="display: none;"><g class="st1" style="display: inline;"><g><ellipse class="st2" cx="15.1" cy="17.7" rx="13.6" ry="13.8" style="fill: none; stroke: url(#SvgjsLinearGradient11878); stroke-miterlimit: 10;"/><ellipse class="st2" cx="15.1" cy="17.7" rx="10.1" ry="10.2" style="fill: none; stroke: url(#SvgjsLinearGradient11878); stroke-miterlimit: 10;"/><ellipse class="st2" cx="15.1" cy="17.7" rx="6.4" ry="6.4" style="fill: none; stroke: url(#SvgjsLinearGradient11878); stroke-miterlimit: 10;"/></g><polygon class="st3" points="15.4,22.2 7.1,14.1 10.4,10.4 15,14.9 27.2,0 31,3.3   " style="fill: url(#SvgjsLinearGradient11878);"/></g></g><g xmlns="http://www.w3.org/2000/svg"><path d="M27.2,0l-4.7,5.7c-2.2-1.4-4.7-2.2-7.4-2.2C7.3,3.5,1,9.9,1,17.7S7.3,32,15.1,32s14.1-6.4,14.1-14.3c0-3.3-1.1-6.3-3-8.7   L31,3.3L27.2,0z M21,17.7c0,3.3-2.6,5.9-5.9,5.9S9.2,21,9.2,17.7c0-0.5,0.1-0.9,0.1-1.3l6,5.8l5.3-6.4C20.9,16.4,21,17.1,21,17.7z    M12.5,12.4c0.8-0.4,1.7-0.6,2.6-0.6c0.7,0,1.4,0.1,2.1,0.4L15,14.9L12.5,12.4z M17.9,11.4c-0.8-0.4-1.8-0.6-2.7-0.6   c-1.2,0-2.4,0.3-3.4,0.9l-1.3-1.3l-3.4,3.7l1.5,1.5c-0.2,0.7-0.3,1.4-0.3,2.1c0,3.8,3.1,6.9,6.9,6.9s6.9-3.1,6.9-6.9   c0-1-0.2-1.9-0.6-2.8l1.9-2.3c0.9,1.5,1.5,3.2,1.5,5.1c0,5.4-4.3,9.7-9.6,9.7s-9.6-4.4-9.6-9.7S9.8,8,15.1,8c1.6,0,3.2,0.4,4.5,1.1   L17.9,11.4z M28.2,17.7C28.2,25,22.4,31,15.1,31S2,25,2,17.7S7.9,4.5,15.1,4.5c2.5,0,4.8,0.7,6.8,2l-1.6,2C18.8,7.5,17,7,15.1,7   C9.3,7,4.5,11.8,4.5,17.8s4.8,10.7,10.6,10.7c5.9,0,10.6-4.8,10.6-10.7c0-2.2-0.7-4.2-1.8-5.9l1.6-2C27.3,12,28.2,14.8,28.2,17.7z"/></g></g><g id="SvgjsG11872" featureKey="nameFeature-0" transform="matrix(1.7322016420048325,0,0,1.7322016420048325,89.78745835500975,9.022521449495107)" fill="#ffffff"><path d="M5.78 5.76 c2.46 0 4.02 1.54 4.76 2.9 l-2.16 1.28 c-0.76 -1.06 -1.5 -1.6 -2.6 -1.6 c-0.98 0 -1.7 0.58 -1.7 1.38 s0.46 1.22 1.56 1.62 l0.96 0.34 c3.1 1.1 4.32 2.48 4.32 4.4 c0 2.82 -2.68 4.22 -5.06 4.22 c-2.52 0 -4.48 -1.5 -5.16 -3.46 l2.24 -1.18 c0.5 1.02 1.34 2 2.92 2 c1.14 0 2.02 -0.5 2.02 -1.54 c0 -1 -0.6 -1.44 -2.12 -2.02 l-0.86 -0.3 c-2.06 -0.74 -3.72 -1.76 -3.72 -4.2 c0 -2.24 2.1 -3.84 4.6 -3.84 z M21.880000000000003 20 l-4.34 -6 l-1.72 1.96 l0 4.04 l-3 0 l0 -14 l3 0 l0 6.1 l5.18 -6.1 l3.6 0 l-5.26 5.96 l5.9 8.04 l-3.36 0 z M29.860000000000003 6 l0 14 l-2.92 0 l0 -14 l2.92 0 z M35.18 17.32 l5.5 0 l0 2.68 l-8.42 0 l0 -14 l2.92 0 l0 11.32 z M45.6 17.32 l5.5 0 l0 2.68 l-8.42 0 l0 -14 l2.92 0 l0 11.32 z M60.82000000000001 12.24 c1.48 0.4 2.88 1.72 2.88 3.66 c0 2.54 -1.6 4.1 -5.08 4.1 l-5.52 0 l0 -14 l5.22 0 c2.9 0 4.36 1.64 4.36 3.52 c0 1.48 -0.96 2.32 -1.86 2.72 z M58.040000000000006 8.56 l-2.02 0 l0 2.82 l2.02 0 c1.24 0 1.74 -0.58 1.74 -1.42 c0 -0.9 -0.58 -1.4 -1.74 -1.4 z M58.46000000000001 17.44 c1.6 0 2.32 -0.66 2.32 -1.9 c0 -1.06 -0.72 -1.8 -2.44 -1.8 l-2.32 0 l0 3.7 l2.44 0 z M76.78 20 l-1.06 -2.5 l-6.76 0 l-1.06 2.5 l-3.1 0 l6.22 -14 l2.64 0 l6.24 14 l-3.12 0 z M69.98 15.120000000000001 l4.72 0 l-2.36 -5.54 z M86.08000000000001 5.76 c2.46 0 4.02 1.54 4.76 2.9 l-2.16 1.28 c-0.76 -1.06 -1.5 -1.6 -2.6 -1.6 c-0.98 0 -1.7 0.58 -1.7 1.38 s0.46 1.22 1.56 1.62 l0.96 0.34 c3.1 1.1 4.32 2.48 4.32 4.4 c0 2.82 -2.68 4.22 -5.06 4.22 c-2.52 0 -4.48 -1.5 -5.16 -3.46 l2.24 -1.18 c0.5 1.02 1.34 2 2.92 2 c1.14 0 2.02 -0.5 2.02 -1.54 c0 -1 -0.6 -1.44 -2.12 -2.02 l-0.86 -0.3 c-2.06 -0.74 -3.72 -1.76 -3.72 -4.2 c0 -2.24 2.1 -3.84 4.6 -3.84 z M96.04000000000002 17.32 l5.92 0 l0 2.68 l-6.32 0 l-2.52 0 l0 -14 l2.92 0 l5.74 0 l0 2.68 l-5.74 0 l0 2.96 l4.34 0 l0 2.64 l-4.34 0 l0 3.04 z M109.06000000000002 6 c3.98 0 7.1 3.12 7.1 6.92 c0 3.96 -3.12 7.08 -7.1 7.08 l-5 0 l0 -14 l5 0 z M109.04000000000002 17.240000000000002 c2.68 0 4.12 -1.94 4.12 -4.32 c0 -2.22 -1.44 -4.16 -4.12 -4.16 l-2.06 0 l0 8.48 l2.06 0 z"/></g><g id="SvgjsG11873" featureKey="sloganFeature-0" transform="matrix(0.7531231516691583,0,0,0.7531231516691583,90.13948180120211,49.476855082243205)" fill="#ffffff"><path d="M8.0469 20.18555 c-3.916 0 -6.9043 -2.6855 -6.9043 -7.0996 c0 -4.3945 2.9883 -7.0801 6.9043 -7.0801 c2.793 0 5.1074 1.3867 6.1719 3.7598 l-1.7969 0.71289 c-0.80078 -1.6895 -2.4316 -2.6367 -4.375 -2.6367 c-2.7734 0 -4.9707 1.9141 -4.9707 5.2441 c0 3.3496 2.1973 5.2637 4.9707 5.2637 c1.9434 0 3.5742 -0.94727 4.375 -2.6367 l1.7969 0.72266 c-1.0645 2.3633 -3.3789 3.75 -6.1719 3.75 z M32.55617734375 20.18555 c-3.916 0 -6.9043 -2.6953 -6.9043 -7.0996 c0 -4.3945 2.9883 -7.0801 6.9043 -7.0801 c3.8965 0 6.8945 2.6855 6.8945 7.0801 c0 4.4043 -2.998 7.0996 -6.8945 7.0996 z M32.55617734375 18.3594 c2.7637 0 4.9512 -1.9141 4.9512 -5.2734 c0 -3.3301 -2.1875 -5.2441 -4.9512 -5.2441 c-2.7734 0 -4.9707 1.9141 -4.9707 5.2441 c0 3.3594 2.1973 5.2734 4.9707 5.2734 z M61.4890078125 6.191000000000001 l1.9336 0 l0 13.809 l-2.0996 0 l-7.2168 -10.957 l0 10.957 l-1.9238 0 l0 -13.809 l2.0801 0 l7.2266 10.908 l0 -10.908 z M81.43800703125 20.18555 c-2.8809 0 -4.9902 -1.377 -5.459 -3.7207 l1.9824 -0.46875 c0.3125 1.6113 1.709 2.5391 3.5449 2.5391 c1.4746 0 2.8906 -0.60547 2.8613 -2.2656 c-0.019531 -1.6406 -1.7969 -2.0898 -3.6816 -2.6074 c-2.1387 -0.58594 -4.2773 -1.2598 -4.2773 -3.7988 c0 -2.5684 2.1191 -3.8574 4.6289 -3.8574 c2.4316 0 4.6191 1.0254 5.1367 3.3984 l-1.8848 0.47852 c-0.3418 -1.5332 -1.6211 -2.2168 -3.1641 -2.2168 c-1.3867 0 -2.7637 0.60547 -2.7637 2.1777 c0 1.4258 1.543 1.8457 3.291 2.3145 c2.1973 0.5957 4.7168 1.2793 4.7168 4.0527 c0 2.793 -2.3438 3.9746 -4.9316 3.9746 z M103.847625 20.18555 c-2.8613 0 -5.0781 -1.6895 -5.0781 -4.8047 l0 -9.1895 l1.9434 0 l0 8.916 c0 2.2754 1.3672 3.3203 3.1348 3.3203 s3.1641 -1.0547 3.1641 -3.3203 l0 -8.916 l1.9434 0 l0 9.1895 c0 3.1152 -2.2266 4.8047 -5.1074 4.8047 z M124.30423046875 18.2422 l4.7168 0 l0 1.7578 l-6.6602 0 l0 -13.809 l1.9434 0 l0 12.051 z M148.5009515625 6.191000000000001 l0 1.748 l-3.4961 0 l0 12.061 l-1.9238 0 l0 -12.061 l-3.5059 0 l0 -1.748 l8.9258 0 z M160.61766640625 20 l0 -13.809 l1.9434 0 l0 13.809 l-1.9434 0 z M185.56615625 6.191000000000001 l1.9336 0 l0 13.809 l-2.0996 0 l-7.2168 -10.957 l0 10.957 l-1.9238 0 l0 -13.809 l2.0801 0 l7.2266 10.908 l0 -10.908 z M207.06785546875 20.18555 c-3.8672 0 -6.8359 -2.6465 -6.8359 -7.0508 c0 -4.4434 2.9883 -7.1289 6.9043 -7.1289 c2.5391 0 4.7168 1.1133 5.9082 3.2227 l-1.7188 0.91797 c-0.86914 -1.6211 -2.4219 -2.373 -4.1895 -2.373 c-2.793 0 -4.9512 1.8945 -4.9512 5.3223 c0 3.3789 2.1094 5.3418 5.0195 5.3418 c2.3438 0 4.1797 -1.3184 4.502 -3.9355 l-4.5117 0 l0 -1.6211 l6.3965 0 l0 7.1191 l-1.582 0 l0 -2.4805 c-0.9082 1.6895 -2.6172 2.666 -4.9414 2.666 z"/></g>
			</g>
		</svg>
	